#N canvas 798 166 577 355 12;
#X obj 100 100 inlet~ L;
#X obj 200 100 inlet~ R;
#X obj 100 140 *~;
#X obj 200 140 *~;
#X obj 100 300 outlet~ L;
#X obj 200 300 outlet~ R;
#X obj 300 100 inlet volume;
#X obj 400 100 inlet pan;
#X obj 100 260 *~;
#X obj 200 260 *~;
#X obj 120 200 expr 1 - $f1;
#X text 100 80 L channel;
#X text 200 80 R channel;
#X connect 0 0 2 0;
#X connect 1 0 3 0;
#X connect 2 0 8 0;
#X connect 3 0 9 0;
#X connect 6 0 2 1;
#X connect 6 0 3 1;
#X connect 7 0 10 0;
#X connect 7 0 9 1;
#X connect 8 0 4 0;
#X connect 9 0 5 0;
#X connect 10 0 8 1;
