#N canvas 12 172 680 751 12;
#X obj 500 200 t f f f;
#X obj 850 150 t f f f;
#X obj 560 250 expr ($f1 >> 6) & 3;
#X obj 530 350 expr ($f1 >> 3) & 7;
#X obj 500 450 expr $f1 & 7;
#X floatatom 500 490 5 0 0 0 - - -, f 5;
#X floatatom 530 410 5 0 0 0 - - -, f 5;
#X floatatom 560 310 5 0 0 0 - - -, f 5;
#X obj 600 410 / 8;
#X obj 600 490 / 8;
#X obj 50 100 inlet byte1;
#X obj 500 100 inlet byte2;
#X obj 800 100 inlet byte3;
#X obj 650 410 outlet patch volume;
#X obj 650 490 outlet pan;
#X obj 100 200 moses 1;
#X obj 100 280 moses 2;
#X obj 100 360 moses 3;
#X obj 300 200 outlet sample id;
#X obj 300 280 outlet patch id;
#X obj 300 360 outlet narration id;
#X obj 300 440 outlet music id;
#X text 560 290 XX------;
#X text 530 390 --XXX---;
#X text 500 470 -----XXX;
#X obj 200 200 float;
#X obj 200 280 float;
#X obj 200 360 float;
#X obj 160 200 bang;
#X obj 160 280 bang;
#X obj 160 360 bang;
#X obj 160 440 bang;
#X obj 200 440 float;
#X floatatom 300 220 5 0 0 0 - - -, f 5;
#X floatatom 300 300 5 0 0 0 - - -, f 5;
#X floatatom 300 380 5 0 0 0 - - -, f 5;
#X floatatom 300 460 5 0 0 0 - - -, f 5;
#X text 300 180 0;
#X text 300 260 1;
#X text 300 340 2;
#X text 300 420 3;
#X floatatom 650 430 5 0 0 0 - - -, f 5;
#X floatatom 650 510 5 0 0 0 - - -, f 5;
#X connect 0 0 4 0;
#X connect 0 1 3 0;
#X connect 0 2 2 0;
#X connect 2 0 7 0;
#X connect 3 0 6 0;
#X connect 4 0 5 0;
#X connect 5 0 9 0;
#X connect 6 0 8 0;
#X connect 7 0 15 0;
#X connect 8 0 13 0;
#X connect 8 0 41 0;
#X connect 9 0 14 0;
#X connect 9 0 42 0;
#X connect 10 0 0 0;
#X connect 11 0 25 1;
#X connect 11 0 26 1;
#X connect 11 0 27 1;
#X connect 11 0 32 1;
#X connect 12 0 1 0;
#X connect 15 0 28 0;
#X connect 15 1 16 0;
#X connect 16 0 29 0;
#X connect 16 1 17 0;
#X connect 17 0 30 0;
#X connect 17 1 31 0;
#X connect 25 0 18 0;
#X connect 25 0 33 0;
#X connect 26 0 19 0;
#X connect 26 0 34 0;
#X connect 27 0 20 0;
#X connect 27 0 35 0;
#X connect 28 0 25 0;
#X connect 29 0 26 0;
#X connect 30 0 27 0;
#X connect 31 0 32 0;
#X connect 32 0 21 0;
#X connect 32 0 36 0;
