#N canvas 760 39 715 690 12;
#X floatatom 100 140 5 0 0 0 - - -, f 5;
#X floatatom 300 140 5 0 0 0 - - -, f 5;
#X floatatom 200 140 5 0 0 0 - - -, f 5;
#X obj 500 240 hsl 128 15 0 1 0 0 main_volume empty empty -2 -8 0 10
#fcfcfc #000000 #000000 0 1;
#X text 100 160 byte 1;
#X text 200 160 byte 2;
#X text 300 160 byte 3;
#X obj 100 440 playsample;
#X obj 500 160 bng 15 250 50 0 open empty empty 17 7 0 10 #fcfcfc #000000
#000000;
#X obj 500 200 bng 15 250 50 0 close empty empty 17 7 0 10 #fcfcfc
#000000 #000000;
#X text 500 100 port #;
#X floatatom 500 120 5 0 0 0 - - port, f 5;
#X text 500 140 open;
#X text 500 180 close;
#X obj 100 100 receivemsg;
#X text 500 220 main volume;
#X obj 100 400 selectsample;
#X obj 100 600 mainout;
#X obj 100 200 decodemsg;
#X obj 100 530 balance;
#X obj 200 480 float;
#X obj 200 440 bang;
#X obj 270 480 float;
#X obj 270 440 bang;
#X connect 0 0 18 0;
#X connect 1 0 18 2;
#X connect 2 0 18 1;
#X connect 7 0 19 0;
#X connect 7 1 19 1;
#X connect 14 0 0 0;
#X connect 14 1 2 0;
#X connect 14 2 1 0;
#X connect 16 0 7 0;
#X connect 16 0 21 0;
#X connect 16 0 23 0;
#X connect 18 3 16 0;
#X connect 18 4 20 1;
#X connect 18 5 22 1;
#X connect 19 0 17 0;
#X connect 19 1 17 1;
#X connect 20 0 19 2;
#X connect 21 0 20 0;
#X connect 22 0 19 3;
#X connect 23 0 22 0;
