#N canvas 0 108 688 456 12;
#X obj 300 140 soundfiler;
#N canvas 0 22 450 300 (subpatch) 0;
#X array L 131518 float 2 black black;
#X coords 0 1 131518 -1 200 140 1;
#X restore 30 30 graph;
#N canvas 0 22 450 300 (subpatch) 0;
#X array R 131518 float 2 black black;
#X coords 0 1 131518 -1 200 140 1;
#X restore 30 200 graph;
#X obj 300 220 tabplay~ L;
#X obj 400 220 tabplay~ R;
#X text 250 30 sound file to load;
#X text 300 280 L channel;
#X text 400 280 R channel;
#X msg 300 100 read -resize \$1 L R;
#X msg 470 320 const 0;
#X obj 470 360 s R;
#X msg 370 320 const 0;
#X obj 370 360 s L;
#X text 550 320 clear arrays;
#X obj 300 180 bang;
#X obj 250 50 inlet file;
#X obj 300 260 outlet~ L;
#X obj 400 260 outlet~ R;
#X connect 0 0 14 0;
#X connect 3 0 16 0;
#X connect 3 1 11 0;
#X connect 4 0 17 0;
#X connect 4 1 9 0;
#X connect 8 0 0 0;
#X connect 9 0 10 0;
#X connect 11 0 12 0;
#X connect 14 0 3 0;
#X connect 14 0 4 0;
#X connect 15 0 8 0;
