#N canvas 52 147 496 593 12;
#X obj 200 240 list cat;
#X obj 200 280 list length;
#X obj 200 320 select 3;
#X msg 350 280 clear;
#X obj 100 380 unpack f f f;
#X obj 200 200 comport -baud 9600;
#X obj 100 420 outlet;
#X obj 150 420 outlet;
#X obj 200 420 outlet;
#X text 100 440 byte 1;
#X text 150 440 byte 2;
#X text 200 440 byte 3;
#X obj 260 50 r port;
#X msg 200 130 open \$1;
#X obj 200 50 r open;
#X msg 300 130 close;
#X obj 300 90 r close;
#X obj 200 90 float;
#X text 200 30 receivers for comport controls;
#X connect 0 0 1 0;
#X connect 0 0 4 0;
#X connect 1 0 2 0;
#X connect 2 0 3 0;
#X connect 3 0 0 1;
#X connect 4 0 6 0;
#X connect 4 1 7 0;
#X connect 4 2 8 0;
#X connect 5 0 0 0;
#X connect 12 0 17 1;
#X connect 13 0 5 0;
#X connect 14 0 17 0;
#X connect 15 0 5 0;
#X connect 16 0 15 0;
#X connect 17 0 13 0;
