#N canvas 0 266 613 489 12;
#X text 100 80 sample id;
#X obj 100 140 select 0;
#X obj 100 180 select 1;
#X obj 100 100 inlet id;
#X obj 500 300 outlet message;
#X obj 100 220 select 2;
#X msg 200 140 read sounds/samples/sample1.wav;
#X msg 200 180 read sounds/samples/sample2.wav;
#X msg 200 220 read sounds/samples/sample3.wav;
#X connect 1 0 6 0;
#X connect 2 0 7 0;
#X connect 3 0 1 0;
#X connect 3 0 2 0;
#X connect 3 0 5 0;
#X connect 5 0 8 0;
#X connect 6 0 4 0;
#X connect 7 0 4 0;
#X connect 8 0 4 0;
